<svg width="25" height="24" viewBox="0 0 25 24" fill="none" xmlns="http://www.w3.org/2000/svg">
<path d="M7.79101 20.824L2.50001 22L3.67601 16.709C2.90154 15.2604 2.49754 13.6426 2.50001 12C2.50001 6.477 6.97701 2 12.5 2C18.023 2 22.5 6.477 22.5 12C22.5 17.523 18.023 22 12.5 22C10.8574 22.0025 9.23963 21.5985 7.79101 20.824ZM8.08101 18.711L8.73401 19.061C9.89256 19.6801 11.1864 20.0027 12.5 20C14.0823 20 15.629 19.5308 16.9446 18.6518C18.2602 17.7727 19.2855 16.5233 19.891 15.0615C20.4965 13.5997 20.655 11.9911 20.3463 10.4393C20.0376 8.88743 19.2757 7.46197 18.1569 6.34315C17.038 5.22433 15.6126 4.4624 14.0607 4.15372C12.5089 3.84504 10.9004 4.00346 9.43854 4.60896C7.97674 5.21447 6.72731 6.23984 5.84825 7.55544C4.9692 8.87103 4.50001 10.4177 4.50001 12C4.50001 13.334 4.82501 14.618 5.44001 15.766L5.78901 16.419L5.13401 19.366L8.08101 18.711ZM7.50001 12H9.50001C9.50001 12.7956 9.81608 13.5587 10.3787 14.1213C10.9413 14.6839 11.7044 15 12.5 15C13.2957 15 14.0587 14.6839 14.6213 14.1213C15.1839 13.5587 15.5 12.7956 15.5 12H17.5C17.5 13.3261 16.9732 14.5979 16.0355 15.5355C15.0979 16.4732 13.8261 17 12.5 17C11.1739 17 9.90216 16.4732 8.96448 15.5355C8.0268 14.5979 7.50001 13.3261 7.50001 12Z" fill="#848A8D"/>
</svg>
